<?xml version="1.0" encoding="UTF-8"?>
<svg id="Layer_1" data-name="Layer 1" xmlns="http://www.w3.org/2000/svg" viewBox="0 0 686.09 382.5">
  <defs>
    <style>
      .cls-1, .cls-2 {
        fill: #5ac0a6;
      }

      .cls-3 {
        font-size: 36.76px;
        letter-spacing: .08em;
      }

      .cls-3, .cls-4 {
        font-family: Avenir-Black, Avenir;
        font-weight: 800;
      }

      .cls-2, .cls-5, .cls-6 {
        letter-spacing: .1em;
      }

      .cls-7 {
        fill: none;
        stroke: #000;
        stroke-miterlimit: 10;
        stroke-width: 2px;
      }

      .cls-8 {
        letter-spacing: .1em;
      }

      .cls-9 {
        letter-spacing: .1em;
      }

      .cls-4 {
        font-size: 20px;
      }

      .cls-10 {
        letter-spacing: .05em;
      }

      .cls-11 {
        letter-spacing: .03em;
      }

      .cls-6 {
        fill: #231f20;
      }

      .cls-12 {
        letter-spacing: 0em;
      }

      .cls-13 {
        letter-spacing: 0em;
      }

      .cls-14 {
        letter-spacing: 0em;
      }
    </style>
  </defs>
  <text class="cls-4" transform="translate(0 373.36)"><tspan class="cls-5" x="0" y="0">PLUMBING </tspan><tspan class="cls-2" x="131.7" y="0">///</tspan><tspan class="cls-6" x="162.12" y="0"> </tspan><tspan class="cls-5" x="170.04" y="0">RENO</tspan><tspan class="cls-10" x="236.54" y="0">V</tspan><tspan class="cls-13" x="251.52" y="0">A</tspan><tspan class="cls-8" x="266.5" y="0" xml:space="preserve">TIONS  </tspan><tspan class="cls-2" x="354.16" y="0">/// </tspan><tspan class="cls-5" x="392.5" y="0">INS</tspan><tspan class="cls-12" x="432.19" y="0">T</tspan><tspan class="cls-9" x="443.83" y="0">ALL</tspan><tspan class="cls-14" x="486.13" y="0">A</tspan><tspan class="cls-5" x="501.11" y="0">TION </tspan><tspan class="cls-2" x="567.37" y="0">///</tspan><tspan class="cls-5" x="597.79" y="0" xml:space="preserve"> RE</tspan><tspan class="cls-11" x="635.27" y="0">P</tspan><tspan class="cls-9" x="648.39" y="0">AIR</tspan></text>
  <text class="cls-3" transform="translate(68.95 295.1)"><tspan x="0" y="0">DRIFTWELL CONTRACTING</tspan></text>
  <g>
    <path d="M407.95,157.49c5.11,14.21-8.88,18.21-8.88,18.21l-26.38.53,8.9,9.9h114.7c14.99-5.06,8.06-20,8.06-20l-84.53-104.34h-90.39l78.53,95.7Z"/>
    <path d="M522.44,157.49c5.11,14.21-8.88,18.21-8.88,18.21l-26.38.53,8.9,9.9h114.7c14.99-5.06,8.06-20,8.06-20l-84.53-104.34h-90.39l78.53,95.7Z"/>
    <path d="M163.65,90.43c-5.11-14.21,8.88-18.21,8.88-18.21l26.38-.53-8.9-9.9h-114.7c-14.99,5.06-8.06,20-8.06,20l84.53,104.34h90.39l-78.53-95.7Z"/>
    <polygon class="cls-1" points="135.69 0 226.86 .04 421.07 232.69 329.94 232.69 135.69 0"/>
  </g>
  <line class="cls-7" x1=".32" y1="331.45" x2="685.78" y2="331.45"/>
</svg>